# xmcd
#
# Track frame offsets:
#	150
#	16500
#	30100
#	57467
#	78075
#	108280
#
# Disc length: 1786 seconds
# Revision: 0
# Processed by: cddbd v1.5.2PL0 Copyright (c) Steve Scherf et al.
# Submitted via: dBpowerAMP V12.0
#
DISCID=3006f806
DTITLE=Pauline Henry - Feel Like Making Love
DYEAR=1994
DGENRE=Soul
TTITLE0=Feel Like Making Love [Radio Edit]
TTITLE1=Feel Like Making Love [Damien's Feel Like Makin’ Radio Edit]
TTITLE2=Feel Like Making Love [Original Extended Version]
TTITLE3=Feel Like Making Love [Damien’s Feel Like Makin' Club Mix]
TTITLE4=Feel Like Making Love [D’Rhythm Mix]
TTITLE5=Feel Like Making Love [D’Media Mix]
EXTD=
EXTT0=
EXTT1=
EXTT2=
EXTT3=
EXTT4=
EXTT5=
PLAYORDER=
